<?xml version="1.0" encoding="UTF-8"?>
<svg width="128" height="128" viewBox="0 0 128 128" fill="none" xmlns="http://www.w3.org/2000/svg">
    <!-- Background Circle -->
    <circle cx="64" cy="64" r="60" fill="#1976D2"/>
    
    <!-- Building/Construction Icon -->
    <path d="M64 24L104 48V80L64 104L24 80V48L64 24Z" 
          fill="white" 
          fill-opacity="0.95"/>
    
    <!-- Window Details -->
    <path d="M52 56H76V72H52V56Z" 
          fill="#1976D2"/>
    <path d="M44 40H60V48H44V40Z" 
          fill="#1976D2"/>
    <path d="M68 40H84V48H68V40Z" 
          fill="#1976D2"/>
    <path d="M44 80H60V88H44V80Z" 
          fill="#1976D2"/>
    <path d="M68 80H84V88H68V80Z" 
          fill="#1976D2"/>
    
    <!-- Roof Detail -->
    <path d="M64 24L84 36L64 48L44 36L64 24Z" 
          fill="#1976D2" 
          fill-opacity="0.9"/>
    
    <!-- Foundation Lines -->
    <path d="M24 80L64 104L104 80" 
          stroke="#1976D2" 
          stroke-width="4" 
          stroke-linecap="round"/>
    
    <!-- Outer Ring -->
    <circle cx="64" cy="64" r="60" 
            stroke="white" 
            stroke-width="2" 
            stroke-opacity="0.8" 
            fill="none"/>
    
    <!-- Inner Ring -->
    <circle cx="64" cy="64" r="58" 
            stroke="white" 
            stroke-width="1" 
            stroke-opacity="0.4" 
            fill="none"/>
</svg> 